# xmcd
#
# Track frame offsets:
# 150
# 16342
# 29798
# 42411
# 53182
# 63253
# 78177
# 92478
# 123131
# 136579
# 152221
# 166050
# 181017
#
# Disc length: 2515 seconds
#
#
# Revision: 0
# Processed by: cddbd v1.5.1PL0 Copyright (c) Steve Scherf et al.
# Submitted via: FreeRIP 2.941 
#
DISCID=9609d10d
DTITLE=Samson a jeho parta - demaaaczech
DYEAR=2002
DGENRE=Folk
TTITLE0=Dovolena
TTITLE1=Kapie
TTITLE2=Jara
TTITLE3=Nad ranem
TTITLE4=Po usi
TTITLE5=Vuz
TTITLE6=Honzíkova cesta
TTITLE7=Servirka
TTITLE8=Nechte nas
TTITLE9=Hrnecek
TTITLE10=Na Velky patek
TTITLE11=Toulaní
TTITLE12=Medove - Kolibana
EXTD=
EXTT0=
EXTT1=
EXTT2=
EXTT3=
EXTT4=
EXTT5=
EXTT6=
EXTT7=
EXTT8=
EXTT9=
EXTT10=
EXTT11=
EXTT12=
PLAYORDER=
